<svg width="80" height="80" viewBox="0 0 80 80" fill="none" xmlns="http://www.w3.org/2000/svg">
<path d="M39.8374 79.6747C61.8379 79.6747 79.6747 61.8379 79.6747 39.8374C79.6747 17.8368 61.8379 0 39.8374 0C17.8368 0 0 17.8368 0 39.8374C0 61.8379 17.8368 79.6747 39.8374 79.6747ZM39.8374 2.95542C60.2037 2.95542 76.7193 19.471 76.7193 39.8374C76.7193 60.2037 60.2037 76.7193 39.8374 76.7193C19.471 76.7193 2.95542 60.2037 2.95542 39.8374C2.95542 19.471 19.471 2.95542 39.8374 2.95542Z" fill="white"/>
<path d="M63.7937 47.2525C56.0835 41.4286 48.3647 53.3459 40.6545 50.0167C40.6458 50.008 40.6371 49.9993 40.6284 49.9906C40.0199 49.5299 39.4202 49.1996 38.8117 48.9388C38.7508 48.9041 38.6813 48.878 38.6205 48.8606C30.9885 45.8965 23.3653 57.4835 15.7333 51.7291C15.1683 51.3032 14.7163 51.8247 14.7163 53.0243C14.7163 54.2151 15.1683 55.6407 15.7333 56.0666C23.4522 61.8818 31.1624 49.9732 38.8725 53.3024C38.8812 53.3111 38.8899 53.3198 38.8986 53.3285C39.5071 53.7892 40.1069 54.1195 40.7153 54.3716C40.7849 54.4064 40.8457 54.4324 40.9066 54.4498C48.5385 57.4052 56.1618 45.8269 63.7937 51.5813C64.3587 51.9986 64.8107 51.4857 64.8107 50.2862C64.8107 49.0953 64.3587 47.6784 63.7937 47.2525Z" fill="white"/>
<path d="M63.7937 54.98C56.0835 49.1561 48.3647 61.0734 40.6545 57.7442C40.6458 57.7355 40.6371 57.7268 40.6284 57.7182C40.0199 57.2575 39.4202 56.9271 38.8117 56.6664C38.7508 56.6316 38.6813 56.6055 38.6205 56.5881C30.9885 53.6327 23.3653 65.211 15.7333 59.4566C15.1683 59.0394 14.7163 59.5523 14.7163 60.7518C14.7163 61.9427 15.1683 63.3682 15.7333 63.7942C23.4522 69.6181 31.1624 57.7008 38.8725 61.03C38.8812 61.0387 38.8899 61.0474 38.8986 61.056C39.5071 61.5167 40.1069 61.8471 40.7153 62.1078C40.7849 62.1426 40.8457 62.1687 40.9066 62.1861C48.5385 65.1415 56.1618 53.5632 63.7937 59.3176C64.3587 59.7435 64.8107 59.2219 64.8107 58.0224C64.8107 56.8315 64.3587 55.406 63.7937 54.98Z" fill="white"/>
<path d="M19.723 51.6416L21.3051 51.6763C23.2609 51.433 25.3123 50.442 27.4767 49.3989C30.1887 48.0951 32.9964 46.7391 35.9605 46.7391C37.0644 46.7391 38.1249 46.9303 39.1332 47.3041C39.2636 47.3475 39.4027 47.3997 39.5244 47.4605C40.2198 47.7648 40.863 48.1298 41.4889 48.5819C42.1582 48.8426 42.8449 48.973 43.5837 48.973C45.8003 48.973 48.1559 47.843 50.642 46.6434C53.0759 45.47 55.588 44.2704 58.2218 44.0357V40.7587L64.2891 40.3762L53.4062 31.0405L52.9281 21.6093H47.5388L47.4432 25.9381L38.8724 17.4717L13.082 40.3762H19.723V51.6416Z" fill="white"/>
<path d="M56.7183 21.9488C56.9703 22.3052 57.2833 22.6181 57.6484 22.8789L57.518 25.4257L59.2304 23.5308C59.4477 23.5656 59.665 23.5916 59.8823 23.5916C60.1083 23.5916 60.3256 23.5743 60.5342 23.5308L62.2466 25.4257L62.1163 22.8789C62.4726 22.6268 62.7856 22.3139 63.0463 21.9488L65.5932 22.0792L63.6983 20.3668C63.733 20.1494 63.7591 19.9321 63.7591 19.7148C63.7591 19.4888 63.7417 19.2715 63.6983 19.0629L65.5932 17.3505L63.0463 17.4809C62.7943 17.1245 62.4813 16.8116 62.1163 16.5508L62.2466 14.0039L60.5342 15.8989C60.3169 15.8641 60.0996 15.8467 59.8823 15.8467C59.6563 15.8467 59.439 15.8641 59.2304 15.8989L57.518 14.0039L57.6484 16.5508C57.292 16.8029 56.979 17.1158 56.7183 17.4809L54.1714 17.3505L56.0663 19.0629C56.0316 19.2715 56.0055 19.4975 56.0055 19.7148C56.0055 19.9408 56.0229 20.1581 56.0663 20.3668L54.1714 22.0792L56.7183 21.9488Z" fill="white"/>
<path d="M18.4713 28.3028C19.8012 28.3028 21.7831 26.686 20.853 24.4607C19.8186 21.9834 18.4713 19.6973 18.4713 19.6973C18.4713 19.6973 16.9935 21.9138 16.0374 24.4607C15.2464 26.5643 17.1413 28.3028 18.4713 28.3028Z" fill="white"/>
<path d="M23.0347 21.1145C24.0257 21.1145 25.4947 19.915 24.808 18.2634C24.0431 16.4206 23.0434 14.7256 23.0434 14.7256C23.0434 14.7256 21.9482 16.3685 21.2354 18.2634C20.6443 19.8193 22.0525 21.1145 23.0347 21.1145Z" fill="white"/>
<path d="M34.7089 70.7128H32.7184C32.8661 70.2521 33.2399 69.8349 33.8397 69.4263C34.2743 69.1308 34.8306 68.87 35.2913 68.3833C35.6129 68.0442 35.7781 67.627 35.7781 67.1315C35.7781 66.1232 34.9784 65.4365 33.7267 65.4365C32.6054 65.4365 31.8839 66.0537 31.8839 66.8447C31.8839 67.3575 32.2055 67.6966 32.6662 67.6966C33.0834 67.6966 33.379 67.3923 33.379 67.0098C33.379 66.7752 33.2573 66.5839 33.0921 66.5057L32.8227 66.384C32.7358 66.3492 32.701 66.2971 32.701 66.2536C32.701 66.1145 32.9704 65.8711 33.379 65.8711C33.9788 65.8711 34.2917 66.2536 34.2917 67.0098C34.2917 67.4879 34.1526 67.9573 33.9092 68.3398C33.5181 68.957 32.9878 69.4437 32.5532 69.9827C32.0838 70.5824 31.8317 71.1301 31.8057 71.9037H35.5869L35.8389 70.0609H35.4391C35.3609 70.6172 35.2479 70.7128 34.7089 70.7128Z" fill="white"/>
<path d="M38.855 65.4277C38.3074 65.4277 37.7685 65.7059 37.4034 66.2014C36.9253 66.8533 36.6646 67.7138 36.6646 68.7395C36.6646 69.7566 36.9166 70.6171 37.3947 71.2604C37.7598 71.7645 38.29 72.034 38.855 72.034C40.072 72.034 41.0455 70.7649 41.0455 68.7135C41.0455 67.6965 40.7848 66.8272 40.3154 66.1753C39.9677 65.7059 39.4374 65.4277 38.855 65.4277ZM39.5157 68.7395V69.1742C39.5157 70.8779 39.4896 71.6167 38.8637 71.6167C38.2379 71.6167 38.2118 70.8779 38.2118 69.1742V68.7395V68.2962C38.2118 66.5925 38.2379 65.8624 38.8637 65.8624C39.4896 65.8624 39.5157 66.6012 39.5157 68.2962V68.7395Z" fill="white"/>
<path d="M43.7926 65.4277C43.245 65.4277 42.7061 65.7059 42.3497 66.2014C41.8716 66.8533 41.6108 67.7138 41.6108 68.7395C41.6108 69.7566 41.8629 70.6171 42.341 71.2604C42.7061 71.7645 43.2363 72.034 43.8013 72.034C45.0183 72.034 45.9918 70.7649 45.9918 68.7135C45.9918 67.6965 45.731 66.8272 45.2617 66.1753C44.9053 65.7059 44.3663 65.4277 43.7926 65.4277ZM44.4446 68.7395V69.1742C44.4446 70.8779 44.4185 71.6167 43.7926 71.6167C43.1668 71.6167 43.1407 70.8779 43.1407 69.1742V68.7395V68.2962C43.1407 66.5925 43.1668 65.8624 43.7926 65.8624C44.4185 65.8624 44.4446 66.6012 44.4446 68.2962V68.7395Z" fill="white"/>
<path d="M50.0076 65.4277H49.0428L46.5654 69.5566V70.2173H48.6168V70.678C48.6168 71.2951 48.5212 71.4168 47.7389 71.4603V71.8862H50.7639V71.4603C50.0598 71.4255 49.9989 71.2777 49.9989 70.678V70.2173H50.7639V69.6436H49.9989V65.4277H50.0076ZM48.6255 69.6523H46.9218L48.8341 66.4882C48.7211 67.9485 48.6516 68.9916 48.6255 69.6523Z" fill="white"/>
</svg>
